<?xml version="1.0" encoding="UTF-8"?>
<svg id="Calque_1" xmlns="http://www.w3.org/2000/svg" version="1.1" viewBox="0 0 599.9 84">
  <!-- Generator: Adobe Illustrator 29.1.0, SVG Export Plug-In . SVG Version: 2.1.0 Build 142)  -->
  <defs>
    <style>
      .st0 {
        fill: #fff;
      }
    </style>
  </defs>
  <g>
    <path class="st0" d="M106.2,29.4v8.6c4.3-6.6,9.3-9.3,17.2-9.3,1.3,0,1.7,0,3.6.1v17.7c-3-1.5-4.7-1.9-7.9-1.9-8.7,0-13,5-13,14.7v22.4s-18.5,0-18.5,0V29.4s18.5,0,18.5,0Z"/>
    <path class="st0" d="M173.6,46.4c-3.6-2.4-6.2-3.4-9.6-3.4-7.3,0-12.7,5.3-12.7,12.5,0,7.6,5.2,12.8,13,12.8,3.4,0,6.4-1.2,9.4-3.5v15.7c-4.7,2.1-8.3,2.9-13.1,2.9-16,0-28.6-12.1-28.6-27.5,0-16.3,12.4-28.2,29.4-28.2,4.6,0,8.1.8,12.3,2.9v15.7Z"/>
    <path class="st0" d="M202.7,59.1c0,6.4,3.1,9.6,9.5,9.6,6.2,0,9.4-3.2,9.4-9.6v-29.7s18.5,0,18.5,0v33.3c0,13.9-9.7,21.3-27.9,21.3-18.3,0-28-7.4-28-21.3V29.4s18.5,0,18.5,0v29.7Z"/>
    <path class="st0" d="M284.4,43c-3.5-1.7-6.8-2.5-10.1-2.5-3.2,0-5.7,1.6-5.7,3.7,0,2.4.9,2.9,8.3,4.5,10.5,2.1,15.3,7.1,15.3,15.6,0,11.8-9.8,19.5-25,19.5-7.3,0-14.1-2-20.9-6l6.7-13.1c4.9,3.2,10.5,5.3,14.8,5.3,3.4,0,5.8-1.7,5.8-4,0-2.7-1.4-3.5-7.9-4.9-11.3-2.3-15.4-6.2-15.4-14.8,0-11.5,9.1-18.7,23.4-18.7,6.4,0,11.1.9,16.9,3.4l-6.2,12Z"/>
    <path class="st0" d="M42.4,63.5c-12,0-21.7-9.7-21.7-21.7,0-4.6,1.4-8.8,3.9-12.3,1.1-1.6,2.4-3.1,3.9-4.3,3.8-3.1,8.6-5,13.9-5,.9,0,1.8,0,2.7.2V1.5c-1.4-.1-2.8-.2-4.2-.2C18.2,1.3,0,19.3,0,41.9c0,22.7,18,40.3,41.3,40.3,1.3,0,2.6,0,3.8-.2v-18.7c-.9.1-1.8.2-2.7.2Z"/>
    <path class="st0" d="M77,10.4c0,5.8-4.6,10.4-10.4,10.4-5.8,0-10.4-4.6-10.4-10.4,0-5.8,4.6-10.4,10.4-10.4,5.8,0,10.4,4.6,10.4,10.4Z"/>
    <path class="st0" d="M75.8,81.8h-18.5s0-44.5,0-44.5h18.5s0,44.5,0,44.5Z"/>
  </g>
  <g>
    <path class="st0" d="M351.4,66.5c-1.8,1.4-4.3,2.1-7.4,2.1s-3.4-.3-4.9-1c-1.5-.6-2.7-1.5-3.7-2.6-1-1.1-1.8-2.4-2.4-3.9-.6-1.5-.8-3.2-.8-5s.3-3.5.8-5c.6-1.5,1.4-2.9,2.4-4,1.1-1.1,2.3-2,3.7-2.6,1.4-.6,3-1,4.8-1,5,0,8.6,2.5,10.7,7.5l11.4-10.6c-2.1-3.9-5-6.8-8.6-8.8-3.6-2-8.3-3-14-3s-7.6.7-11,2c-3.3,1.3-6.2,3.2-8.7,5.7-2.4,2.4-4.3,5.3-5.7,8.7s-2,7.1-2,11.1.7,7.6,2,11,3.2,6.3,5.7,8.7c2.4,2.4,5.3,4.3,8.7,5.7,3.3,1.3,7,2,11,2s5.8-.4,8.2-1c2.5-.7,4.7-1.7,6.6-2.9,2-1.2,3.7-2.6,5.1-4.3,1.5-1.7,2.7-3.5,3.8-5.5l-11.9-8.6c-.8,2.1-2.2,3.9-4,5.3ZM354.8,37.1c1.6,0,2.9,1.3,2.9,2.9s-1.3,2.9-2.9,2.9-2.9-1.3-2.9-2.9,1.3-2.9,2.9-2.9ZM347.3,34.2c1.6,0,2.9,1.3,2.9,2.9s-1.3,2.9-2.9,2.9-2.9-1.3-2.9-2.9,1.3-2.9,2.9-2.9ZM339.4,34.1c1.6,0,2.9,1.3,2.9,2.9s-1.3,2.9-2.9,2.9-2.9-1.3-2.9-2.9,1.3-2.9,2.9-2.9ZM332,36.9c1.6,0,2.9,1.3,2.9,2.9s-1.3,2.9-2.9,2.9-2.9-1.3-2.9-2.9,1.3-2.9,2.9-2.9ZM326.7,42.8c1.6,0,2.9,1.3,2.9,2.9s-1.3,2.9-2.9,2.9-2.9-1.3-2.9-2.9,1.3-2.9,2.9-2.9ZM324.4,50.4c1.6,0,2.9,1.3,2.9,2.9s-1.3,2.9-2.9,2.9-2.9-1.3-2.9-2.9,1.3-2.9,2.9-2.9ZM321.9,61.2c0-1.6,1.3-2.9,2.9-2.9s2.9,1.3,2.9,2.9-1.3,2.9-2.9,2.9-2.9-1.3-2.9-2.9ZM327.9,71.2c-1.6,0-2.9-1.3-2.9-2.9s1.3-2.9,2.9-2.9,2.9,1.3,2.9,2.9-1.3,2.9-2.9,2.9ZM333.8,76.4c-1.6,0-2.9-1.3-2.9-2.9s1.3-2.9,2.9-2.9,2.9,1.3,2.9,2.9-1.3,2.9-2.9,2.9ZM341.4,78.8c-1.6,0-2.9-1.3-2.9-2.9s1.3-2.9,2.9-2.9,2.9,1.3,2.9,2.9-1.3,2.9-2.9,2.9ZM349.2,78.3c-1.6,0-2.9-1.3-2.9-2.9s1.3-2.9,2.9-2.9,2.9,1.3,2.9,2.9-1.3,2.9-2.9,2.9ZM359.2,72c0,1.6-1.3,2.9-2.9,2.9s-2.9-1.3-2.9-2.9,1.3-2.9,2.9-2.9,2.9,1.3,2.9,2.9Z"/>
    <path class="st0" d="M385.9,29.7l-18.3,52.8h17.4l1.8-5.5h16.7l1.7,5.5h17.3l-18.4-52.8h-18.1ZM399.3,35.2c1.6,0,2.9,1.3,2.9,2.9s-1.3,2.9-2.9,2.9-2.9-1.3-2.9-2.9,1.3-2.9,2.9-2.9ZM399.5,63.8h-9l4.5-15.4,4.5,15.4ZM390.6,35.2c1.6,0,2.9,1.3,2.9,2.9s-1.3,2.9-2.9,2.9-2.9-1.3-2.9-2.9,1.3-2.9,2.9-2.9ZM388.1,43.1c1.6,0,2.9,1.3,2.9,2.9s-1.3,2.9-2.9,2.9-2.9-1.3-2.9-2.9,1.3-2.9,2.9-2.9ZM377.7,79.9c-1.6,0-2.9-1.3-2.9-2.9s1.3-2.9,2.9-2.9,2.9,1.3,2.9,2.9-1.3,2.9-2.9,2.9ZM380.4,72.5c-1.6,0-2.9-1.3-2.9-2.9s1.3-2.9,2.9-2.9,2.9,1.3,2.9,2.9-1.3,2.9-2.9,2.9ZM382.7,64.6c-1.6,0-2.9-1.3-2.9-2.9s1.3-2.9,2.9-2.9,2.9,1.3,2.9,2.9-1.3,2.9-2.9,2.9ZM385.4,56.7c-1.6,0-2.9-1.3-2.9-2.9s1.3-2.9,2.9-2.9,2.9,1.3,2.9,2.9-1.3,2.9-2.9,2.9ZM390.4,72.9c-1.6,0-2.9-1.3-2.9-2.9s1.3-2.9,2.9-2.9,2.9,1.3,2.9,2.9-1.3,2.9-2.9,2.9ZM399.6,72.9c-1.6,0-2.9-1.3-2.9-2.9s1.3-2.9,2.9-2.9,2.9,1.3,2.9,2.9-1.3,2.9-2.9,2.9ZM414.9,77c0,1.6-1.3,2.9-2.9,2.9s-2.9-1.3-2.9-2.9,1.3-2.9,2.9-2.9,2.9,1.3,2.9,2.9ZM412.2,69.7c0,1.6-1.3,2.9-2.9,2.9s-2.9-1.3-2.9-2.9,1.3-2.9,2.9-2.9,2.9,1.3,2.9,2.9ZM410,61.8c0,1.6-1.3,2.9-2.9,2.9s-2.9-1.3-2.9-2.9,1.3-2.9,2.9-2.9,2.9,1.3,2.9,2.9ZM407.3,53.8c0,1.6-1.3,2.9-2.9,2.9s-2.9-1.3-2.9-2.9,1.3-2.9,2.9-2.9,2.9,1.3,2.9,2.9ZM401.7,48.8c-1.6,0-2.9-1.3-2.9-2.9s1.3-2.9,2.9-2.9,2.9,1.3,2.9,2.9-1.3,2.9-2.9,2.9Z"/>
    <path class="st0" d="M467.8,82.5h16.5V29.7h-16.5v52.8ZM476.1,33.3c1.6,0,2.9,1.3,2.9,2.9s-1.3,2.9-2.9,2.9-2.9-1.3-2.9-2.9,1.3-2.9,2.9-2.9ZM476.1,41.4c1.6,0,2.9,1.3,2.9,2.9s-1.3,2.9-2.9,2.9-2.9-1.3-2.9-2.9,1.3-2.9,2.9-2.9ZM476.1,49.5c1.6,0,2.9,1.3,2.9,2.9s-1.3,2.9-2.9,2.9-2.9-1.3-2.9-2.9,1.3-2.9,2.9-2.9ZM476.1,57.5c1.6,0,2.9,1.3,2.9,2.9s-1.3,2.9-2.9,2.9-2.9-1.3-2.9-2.9,1.3-2.9,2.9-2.9ZM476.1,65.6c1.6,0,2.9,1.3,2.9,2.9s-1.3,2.9-2.9,2.9-2.9-1.3-2.9-2.9,1.3-2.9,2.9-2.9ZM476.1,73.6c1.6,0,2.9,1.3,2.9,2.9s-1.3,2.9-2.9,2.9-2.9-1.3-2.9-2.9,1.3-2.9,2.9-2.9Z"/>
    <path class="st0" d="M522.8,56.1l-16-26.5h-16.3v52.8h16.2v-25.4l17,25.4h15V29.7h-16v26.5ZM498.6,79.3c-1.6,0-2.9-1.3-2.9-2.9s1.3-2.9,2.9-2.9,2.9,1.3,2.9,2.9-1.3,2.9-2.9,2.9ZM498.6,71.3c-1.6,0-2.9-1.3-2.9-2.9s1.3-2.9,2.9-2.9,2.9,1.3,2.9,2.9-1.3,2.9-2.9,2.9ZM498.6,63.2c-1.6,0-2.9-1.3-2.9-2.9s1.3-2.9,2.9-2.9,2.9,1.3,2.9,2.9-1.3,2.9-2.9,2.9ZM498.6,55.2c-1.6,0-2.9-1.3-2.9-2.9s1.3-2.9,2.9-2.9,2.9,1.3,2.9,2.9-1.3,2.9-2.9,2.9ZM498.6,47.1c-1.6,0-2.9-1.3-2.9-2.9s1.3-2.9,2.9-2.9,2.9,1.3,2.9,2.9-1.3,2.9-2.9,2.9ZM498.6,39.1c-1.6,0-2.9-1.3-2.9-2.9s1.3-2.9,2.9-2.9,2.9,1.3,2.9,2.9-1.3,2.9-2.9,2.9ZM506,45c-1,0-1.9-.5-2.4-1.3-.4-.6-.6-1.4-.4-2.2.2-.7.6-1.4,1.2-1.8.5-.3,1-.5,1.5-.5,1,0,1.9.5,2.4,1.3.4.6.6,1.4.4,2.2-.2.7-.6,1.4-1.2,1.8-.5.3-1,.5-1.5.5ZM507.9,50.5c-.9-1.3-.5-3.1.9-4,.5-.3,1-.5,1.5-.5,1,0,1.9.5,2.4,1.3.4.6.6,1.4.4,2.2-.2.7-.6,1.4-1.2,1.8-.5.3-1,.5-1.5.5-1,0-1.9-.5-2.4-1.3ZM512.3,57.3c-.9-1.3-.5-3.1.9-4,.5-.3,1-.5,1.5-.5,1,0,1.9.5,2.4,1.3.9,1.3.5,3.1-.9,4-.5.3-1,.5-1.5.5-1,0-1.9-.5-2.4-1.3ZM516.6,64c-.4-.6-.6-1.4-.4-2.2.2-.7.6-1.4,1.2-1.8.5-.3,1-.5,1.5-.5,1,0,1.9.5,2.4,1.3.9,1.3.5,3.1-.9,4-.5.3-1,.5-1.5.5-1,0-1.9-.5-2.4-1.3ZM530.8,33.3c1.6,0,2.9,1.3,2.9,2.9s-1.3,2.9-2.9,2.9-2.9-1.3-2.9-2.9,1.3-2.9,2.9-2.9ZM530.8,41.4c1.6,0,2.9,1.3,2.9,2.9s-1.3,2.9-2.9,2.9-2.9-1.3-2.9-2.9,1.3-2.9,2.9-2.9ZM530.8,49.5c1.6,0,2.9,1.3,2.9,2.9s-1.3,2.9-2.9,2.9-2.9-1.3-2.9-2.9,1.3-2.9,2.9-2.9ZM530.8,57.5c1.6,0,2.9,1.3,2.9,2.9s-1.3,2.9-2.9,2.9-2.9-1.3-2.9-2.9,1.3-2.9,2.9-2.9ZM530.8,65.6c1.6,0,2.9,1.3,2.9,2.9s-1.3,2.9-2.9,2.9-2.9-1.3-2.9-2.9,1.3-2.9,2.9-2.9ZM530.8,73.6c1.6,0,2.9,1.3,2.9,2.9s-1.3,2.9-2.9,2.9-2.9-1.3-2.9-2.9,1.3-2.9,2.9-2.9ZM525.8,67.7c.4.6.6,1.4.4,2.2-.2.7-.6,1.4-1.2,1.8-.5.3-1,.5-1.5.5-1,0-1.9-.5-2.4-1.3-.9-1.3-.5-3.1.9-4,.5-.3,1-.5,1.5-.5,1,0,1.9.5,2.4,1.3Z"/>
    <path class="st0" d="M597.7,45.1c-1.4-3.4-3.4-6.3-5.9-8.7-2.5-2.4-5.5-4.3-8.9-5.7-3.4-1.4-7-2.1-11-2.1s-7.7.7-11.1,2c-3.4,1.3-6.4,3.2-8.9,5.7-2.5,2.4-4.4,5.3-5.8,8.7-1.4,3.4-2.1,7.1-2.1,11.1s.7,7.6,2.1,11c1.4,3.3,3.4,6.2,5.9,8.7,2.5,2.4,5.4,4.3,8.8,5.7,3.4,1.4,7.1,2.1,11,2.1s7.6-.7,11-2.1c3.4-1.4,6.4-3.3,8.9-5.7,2.5-2.4,4.5-5.3,5.9-8.7,1.4-3.3,2.1-7,2.1-11s-.7-7.6-2.1-11ZM589.6,42.6c1.6,0,2.9,1.3,2.9,2.9s-1.3,2.9-2.9,2.9-2.9-1.3-2.9-2.9,1.3-2.9,2.9-2.9ZM584.3,36.6c1.6,0,2.9,1.3,2.9,2.9s-1.3,2.9-2.9,2.9-2.9-1.3-2.9-2.9,1.3-2.9,2.9-2.9ZM577,33.6c1.6,0,2.9,1.3,2.9,2.9s-1.3,2.9-2.9,2.9-2.9-1.3-2.9-2.9,1.3-2.9,2.9-2.9ZM569,33.3c1.6,0,2.9,1.3,2.9,2.9s-1.3,2.9-2.9,2.9-2.9-1.3-2.9-2.9,1.3-2.9,2.9-2.9ZM561.3,35.5c1.6,0,2.9,1.3,2.9,2.9s-1.3,2.9-2.9,2.9-2.9-1.3-2.9-2.9,1.3-2.9,2.9-2.9ZM555.4,40.7c1.6,0,2.9,1.3,2.9,2.9s-1.3,2.9-2.9,2.9-2.9-1.3-2.9-2.9,1.3-2.9,2.9-2.9ZM552.7,48.2c1.6,0,2.9,1.3,2.9,2.9s-1.3,2.9-2.9,2.9-2.9-1.3-2.9-2.9,1.3-2.9,2.9-2.9ZM549.4,59.1c0-1.6,1.3-2.9,2.9-2.9s2.9,1.3,2.9,2.9-1.3,2.9-2.9,2.9-2.9-1.3-2.9-2.9ZM554.4,69.7c-1.6,0-2.9-1.3-2.9-2.9s1.3-2.9,2.9-2.9,2.9,1.3,2.9,2.9-1.3,2.9-2.9,2.9ZM559.3,75.9c-1.6,0-2.9-1.3-2.9-2.9s1.3-2.9,2.9-2.9,2.9,1.3,2.9,2.9-1.3,2.9-2.9,2.9ZM566.8,78.9c-1.6,0-2.9-1.3-2.9-2.9s1.3-2.9,2.9-2.9,2.9,1.3,2.9,2.9-1.3,2.9-2.9,2.9ZM563.6,65.4c-2.1-2.2-3.1-5.2-3.1-9.3s1-7.2,3.1-9.4c2.1-2.2,4.9-3.2,8.4-3.2s6.2,1.1,8.3,3.3c2.1,2.2,3.2,5.3,3.2,9.3s-1.1,7.1-3.2,9.3c-2.1,2.2-4.9,3.2-8.3,3.2s-6.3-1.1-8.4-3.2ZM575,78.9c-1.6,0-2.9-1.3-2.9-2.9s1.3-2.9,2.9-2.9,2.9,1.3,2.9,2.9-1.3,2.9-2.9,2.9ZM582.5,76.9c-1.6,0-2.9-1.3-2.9-2.9s1.3-2.9,2.9-2.9,2.9,1.3,2.9,2.9-1.3,2.9-2.9,2.9ZM588.3,71.5c-1.6,0-2.9-1.3-2.9-2.9s1.3-2.9,2.9-2.9,2.9,1.3,2.9,2.9-1.3,2.9-2.9,2.9ZM591.3,64.1c-1.6,0-2.9-1.3-2.9-2.9s1.3-2.9,2.9-2.9,2.9,1.3,2.9,2.9-1.3,2.9-2.9,2.9ZM591.7,56.2c-1.6,0-2.9-1.3-2.9-2.9s1.3-2.9,2.9-2.9,2.9,1.3,2.9,2.9-1.3,2.9-2.9,2.9Z"/>
    <path class="st0" d="M450.4,49.9l-3.5-1c-2.3-.7-5.7-1.8-5.7-4.6s3.2-3.9,5.4-3.9,6.1,1.2,8.7,3.4l.4.4,5.9-11.4-.4-.2c-4.7-2.6-11.2-4.4-16.6-4.4-10.9,0-18.5,7.4-18.5,18s5.7,12.7,14.4,15.2h.4c2.8.9,7.5,2.2,7.5,5.5s-3.1,4.8-6.1,4.8-7.7-1.7-11.8-5.3l-.4-.4-6.3,11.8.3.2c5.5,3.9,12.2,6,18.6,6s11.3-1.8,15.1-5c3.7-3.1,5.6-8,5.6-14.4,0-9.6-7.1-12.9-13.2-14.7ZM451.2,32.5c1.6,0,2.9,1.3,2.9,2.9s-1.3,2.9-2.9,2.9-2.9-1.3-2.9-2.9,1.3-2.9,2.9-2.9ZM436.3,34.9c1.6,0,2.9,1.3,2.9,2.9s-1.3,2.9-2.9,2.9-2.9-1.3-2.9-2.9,1.3-2.9,2.9-2.9ZM430.9,45.1c0-1.6,1.3-2.9,2.9-2.9s2.9,1.3,2.9,2.9-1.3,2.9-2.9,2.9-2.9-1.3-2.9-2.9ZM437,54.8c-1.6,0-2.9-1.3-2.9-2.9s1.3-2.9,2.9-2.9,2.9,1.3,2.9,2.9-1.3,2.9-2.9,2.9ZM440.6,34.5c0-1.6,1.3-2.9,2.9-2.9s2.9,1.3,2.9,2.9-1.3,2.9-2.9,2.9-2.9-1.3-2.9-2.9ZM443.8,58.3c-1.6,0-2.9-1.3-2.9-2.9s1.3-2.9,2.9-2.9,2.9,1.3,2.9,2.9-1.3,2.9-2.9,2.9ZM448.3,58.5c0-1.6,1.3-2.9,2.9-2.9s2.9,1.3,2.9,2.9-1.3,2.9-2.9,2.9-2.9-1.3-2.9-2.9ZM433.8,78.5c-1.6,0-2.9-1.3-2.9-2.9s1.3-2.9,2.9-2.9,2.9,1.3,2.9,2.9-1.3,2.9-2.9,2.9ZM441.6,80.6c-1.6,0-2.9-1.3-2.9-2.9s1.3-2.9,2.9-2.9,2.9,1.3,2.9,2.9-1.3,2.9-2.9,2.9ZM449.4,79.7c-1.6,0-2.9-1.3-2.9-2.9s1.3-2.9,2.9-2.9,2.9,1.3,2.9,2.9-1.3,2.9-2.9,2.9ZM455.4,74.9c-1.6,0-2.9-1.3-2.9-2.9s1.3-2.9,2.9-2.9,2.9,1.3,2.9,2.9-1.3,2.9-2.9,2.9ZM456.1,67.1c-1.6,0-2.9-1.3-2.9-2.9s1.3-2.9,2.9-2.9,2.9,1.3,2.9,2.9-1.3,2.9-2.9,2.9Z"/>
  </g>
</svg>